<svg width="139" height="41" viewBox="0 0 139 41" fill="none" xmlns="http://www.w3.org/2000/svg">
<path fill-rule="evenodd" clip-rule="evenodd" d="M0 16.3163C0 14.0502 0.43214 11.9275 1.29643 9.94843C2.16073 7.96931 3.34911 6.23949 4.86162 4.75893C6.37414 3.27837 8.14128 2.11508 10.1631 1.26905C12.1849 0.423012 14.3534 0 16.6684 0C18.8909 0 20.8201 0.347474 22.4561 1.04243C24.0921 1.73739 25.4656 2.49277 26.5769 3.30859C27.8424 4.27549 28.9382 5.36323 29.8643 6.57185L27.5492 8.61139C26.8084 7.58407 25.9132 6.67761 24.8637 5.89201C23.9686 5.19705 22.8419 4.57009 21.4837 4.0111C20.1256 3.45211 18.5205 3.17262 16.6684 3.17262C14.8164 3.17262 13.0878 3.50499 11.4827 4.16973C9.87758 4.83447 8.48084 5.75603 7.29244 6.93444C6.10403 8.11285 5.1703 9.50274 4.49121 11.1042C3.81213 12.7056 3.47259 14.443 3.47259 16.3163C3.47259 18.1897 3.81213 19.9271 4.49121 21.5285C5.1703 23.1299 6.10403 24.5198 7.29244 25.6982C8.48084 26.8766 9.87758 27.7982 11.4827 28.4629C13.0878 29.1277 14.8164 29.46 16.6684 29.46C18.4279 29.46 19.9404 29.241 21.2059 28.8028C22.4715 28.3647 23.521 27.8737 24.3544 27.3298C25.3422 26.6953 26.1756 25.9702 26.8547 25.1543V19.0357H19.4465V15.8631H30.3273V26.0608C29.3395 27.2996 28.1666 28.4025 26.8084 29.3694C25.6354 30.1852 24.2078 30.933 22.5255 31.6129C20.8432 32.2927 18.8909 32.6327 16.6684 32.6327C14.3534 32.6327 12.1849 32.2096 10.1631 31.3636C8.14128 30.5176 6.37414 29.3543 4.86162 27.8737C3.34911 26.3932 2.16073 24.6633 1.29643 22.6842C0.43214 20.7051 0 18.5825 0 16.3163ZM53.9152 20.9184C53.9152 19.7424 53.7017 18.6419 53.2749 17.6167C52.8481 16.5915 52.2688 15.702 51.5371 14.9482C50.8054 14.1943 49.9594 13.6064 48.999 13.1842C48.0386 12.7621 47.0097 12.551 45.9121 12.551C44.8146 12.551 43.7856 12.7621 42.8252 13.1842C41.8649 13.6064 41.0188 14.1943 40.2871 14.9482C39.5554 15.702 38.9762 16.5915 38.5493 17.6167C38.1225 18.6419 37.9091 19.7424 37.9091 20.9184C37.9091 22.0943 38.1225 23.1949 38.5493 24.2201C38.9762 25.2453 39.5554 26.1272 40.2871 26.866C41.0188 27.6047 41.8649 28.1927 42.8252 28.6299C43.7856 29.0671 44.8146 29.2857 45.9121 29.2857C47.0097 29.2857 48.0386 29.0746 48.999 28.6525C49.9594 28.2304 50.8054 27.6424 51.5371 26.8886C52.2688 26.1348 52.8481 25.2453 53.2749 24.2201C53.7017 23.1949 53.9152 22.0943 53.9152 20.9184ZM34.5394 21.3367C34.5394 19.7704 34.8411 18.2944 35.4446 16.9087C36.048 15.5231 36.8604 14.3257 37.8816 13.3166C38.9028 12.3075 40.102 11.5093 41.4791 10.9219C42.8562 10.3345 44.3339 10.0408 45.9121 10.0408C47.4904 10.0408 48.9681 10.3345 50.3452 10.9219C51.7223 11.5093 52.9214 12.3075 53.9427 13.3166C54.9639 14.3257 55.7762 15.5231 56.3797 16.9087C56.9831 18.2944 57.2849 19.7704 57.2849 21.3367C57.2849 22.9332 56.9831 24.4167 56.3797 25.7873C55.7762 27.1579 54.9639 28.3477 53.9427 29.3568C52.9214 30.3659 51.7223 31.1642 50.3452 31.7516C48.9681 32.339 47.4904 32.6327 45.9121 32.6327C44.3339 32.6327 42.8562 32.339 41.4791 31.7516C40.102 31.1642 38.9028 30.3659 37.8816 29.3568C36.8604 28.3477 36.048 27.1579 35.4446 25.7873C34.8411 24.4167 34.5394 22.9332 34.5394 21.3367ZM78.3455 20.9184C78.3455 19.7424 78.132 18.6419 77.7052 17.6167C77.2784 16.5915 76.6991 15.702 75.9674 14.9482C75.2357 14.1943 74.3897 13.6064 73.4293 13.1842C72.4689 12.7621 71.44 12.551 70.3424 12.551C69.2449 12.551 68.2159 12.7621 67.2555 13.1842C66.2952 13.6064 65.4491 14.1943 64.7174 14.9482C63.9857 15.702 63.4065 16.5915 62.9796 17.6167C62.5528 18.6419 62.3394 19.7424 62.3394 20.9184C62.3394 22.0943 62.5528 23.1949 62.9796 24.2201C63.4065 25.2453 63.9857 26.1272 64.7174 26.866C65.4491 27.6047 66.2952 28.1927 67.2555 28.6299C68.2159 29.0671 69.2449 29.2857 70.3424 29.2857C71.44 29.2857 72.4689 29.0746 73.4293 28.6525C74.3897 28.2304 75.2357 27.6424 75.9674 26.8886C76.6991 26.1348 77.2784 25.2453 77.7052 24.2201C78.132 23.1949 78.3455 22.0943 78.3455 20.9184ZM58.9697 21.3367C58.9697 19.7704 59.2714 18.2944 59.8749 16.9087C60.4783 15.5231 61.2907 14.3257 62.3119 13.3166C63.3331 12.3075 64.5323 11.5093 65.9094 10.9219C67.2865 10.3345 68.7642 10.0408 70.3424 10.0408C71.9207 10.0408 73.3984 10.3345 74.7755 10.9219C76.1526 11.5093 77.3517 12.3075 78.373 13.3166C79.3942 14.3257 80.2065 15.5231 80.81 16.9087C81.4134 18.2944 81.7151 19.7704 81.7151 21.3367C81.7151 22.9332 81.4134 24.4167 80.81 25.7873C80.2065 27.1579 79.3942 28.3477 78.373 29.3568C77.3517 30.3659 76.1526 31.1642 74.7755 31.7516C73.3984 32.339 71.9207 32.6327 70.3424 32.6327C68.7642 32.6327 67.2865 32.339 65.9094 31.7516C64.5323 31.1642 63.3331 30.3659 62.3119 29.3568C61.2907 28.3477 60.4783 27.1579 59.8749 25.7873C59.2714 24.4167 58.9697 22.9332 58.9697 21.3367ZM102.063 27.3732C101.569 28.0394 100.967 28.645 100.258 29.1901C99.6406 29.6443 98.8768 30.0607 97.9665 30.4392C97.0562 30.8177 95.9531 31.007 94.657 31.007C93.2684 31.007 91.9415 30.7269 90.6763 30.1667C89.4111 29.6065 88.308 28.8343 87.3668 27.8501C86.4256 26.866 85.6696 25.7153 85.0987 24.398C84.5279 23.0807 84.2424 21.6499 84.2424 20.1055C84.2424 18.5612 84.5279 17.1304 85.0987 15.8131C85.6696 14.4958 86.4256 13.3451 87.3668 12.361C88.308 11.3768 89.4111 10.6046 90.6763 10.0444C91.9415 9.48419 93.2684 9.20408 94.657 9.20408C95.9531 9.20408 97.0562 9.39334 97.9665 9.77187C98.8768 10.1504 99.6406 10.5668 100.258 11.021C100.967 11.5661 101.569 12.1717 102.063 12.8379V9.65831H105.303V30.0985C105.303 31.6429 105.018 33.0737 104.447 34.391C103.876 35.7083 103.097 36.859 102.109 37.8431C101.122 38.8273 99.9723 39.5995 98.6608 40.1597C97.3494 40.7199 95.9376 41 94.4256 41C92.8518 41 91.4864 40.7653 90.3292 40.2959C89.172 39.8266 88.2077 39.3042 87.4362 38.7289C86.5413 38.0627 85.7853 37.3056 85.1682 36.4577L87.2511 34.4137C87.7757 35.0799 88.3928 35.6855 89.1026 36.2306C89.7197 36.6848 90.468 37.1012 91.3475 37.4797C92.2269 37.8583 93.253 38.0475 94.4256 38.0475C95.4748 38.0475 96.4622 37.8431 97.3879 37.4343C98.3137 37.0255 99.1237 36.4729 99.818 35.7764C100.512 35.0799 101.06 34.2472 101.461 33.2781C101.862 32.3091 102.063 31.2493 102.063 30.0985V27.3732ZM87.6121 20.5C87.6121 21.6507 87.8091 22.7106 88.2032 23.6796C88.5972 24.6486 89.12 25.4814 89.7717 26.1778C90.4233 26.8743 91.1735 27.427 92.0221 27.8358C92.8708 28.2446 93.7498 28.449 94.6591 28.449C95.629 28.449 96.5534 28.2446 97.4324 27.8358C98.3114 27.427 99.0842 26.8743 99.7511 26.1778C100.418 25.4814 100.948 24.6486 101.342 23.6796C101.736 22.7106 101.933 21.6507 101.933 20.5C101.933 19.3796 101.736 18.3273 101.342 17.3431C100.948 16.359 100.418 15.5186 99.7511 14.8222C99.0842 14.1257 98.3114 13.573 97.4324 13.1642C96.5534 12.7554 95.629 12.551 94.6591 12.551C93.7498 12.551 92.8708 12.7554 92.0221 13.1642C91.1735 13.573 90.4233 14.1257 89.7717 14.8222C89.12 15.5186 88.5972 16.359 88.2032 17.3431C87.8091 18.3273 87.6121 19.3796 87.6121 20.5ZM113.727 31.7959H110.358V0H113.727V31.7959ZM121.11 22.4663C121.17 23.4303 121.412 24.349 121.834 25.2225C122.257 26.0961 122.816 26.8642 123.51 27.5269C124.205 28.1896 125.005 28.7167 125.911 29.1083C126.817 29.4999 127.783 29.6957 128.809 29.6957C129.957 29.6957 130.961 29.5075 131.821 29.1309C132.682 28.7544 133.414 28.3402 134.018 27.8884C134.712 27.3462 135.316 26.7437 135.83 26.081L137.868 28.1143C137.234 28.9577 136.464 29.7108 135.558 30.3735C134.773 30.9458 133.822 31.4654 132.704 31.9323C131.587 32.3992 130.289 32.6327 128.809 32.6327C127.33 32.6327 125.933 32.339 124.62 31.7516C123.306 31.1642 122.152 30.3659 121.155 29.3568C120.159 28.3477 119.374 27.1579 118.8 25.7873C118.226 24.4167 117.939 22.9332 117.939 21.3367C117.939 19.7704 118.226 18.2944 118.8 16.9087C119.374 15.5231 120.151 14.3257 121.132 13.3166C122.114 12.3075 123.246 11.5093 124.529 10.9219C125.813 10.3345 127.164 10.0408 128.583 10.0408C130.062 10.0408 131.436 10.3119 132.704 10.8541C133.973 11.3963 135.075 12.1419 136.011 13.0907C136.947 14.0396 137.679 15.1842 138.207 16.5247C138.736 17.8651 139 19.3185 139 20.8849C139 21.1259 138.985 21.3443 138.955 21.5401C138.925 21.7359 138.894 21.9091 138.864 22.0597C138.834 22.2404 138.804 22.391 138.774 22.5115L121.11 22.4663ZM129.008 12.551C128.012 12.551 127.071 12.7283 126.185 13.083C125.298 13.4376 124.513 13.9253 123.829 14.5459C123.144 15.1665 122.584 15.8832 122.149 16.6959C121.713 17.5086 121.434 18.3583 121.309 19.2449H136.473C136.348 18.2992 136.076 17.4126 135.656 16.5851C135.236 15.7576 134.7 15.0483 134.047 14.4572C133.393 13.8661 132.639 13.4007 131.784 13.0608C130.928 12.721 130.003 12.551 129.008 12.551Z" fill="#9EABB2"/>
</svg>
