<svg width="44" height="40" viewBox="0 0 44 40" fill="none" xmlns="http://www.w3.org/2000/svg">
<path d="M11.0706 0C8.35232 0 6.14042 2.19173 6.14042 4.87553L5.96118 30.1542L8.65038 30.1734L8.8297 4.8854C8.8297 3.67435 9.83502 2.6892 11.0707 2.6892H38.0974V0H11.0706Z" fill="#9EABB2"/>
<path fill-rule="evenodd" clip-rule="evenodd" d="M32.9877 5.10954C32.9877 2.29207 35.2798 0 38.0972 0C40.9147 0 43.2068 2.29207 43.2068 5.10945V11.1154C43.2068 11.8581 42.6048 12.46 41.8621 12.46H35.6769V33.4807C35.6769 37.0148 32.8017 39.89 29.2676 39.89C25.7335 39.89 22.8583 37.0148 22.8583 33.4807V31.5534H2.6892V33.4808C2.6892 35.5317 4.35789 37.2008 6.40928 37.2008V39.89C2.87519 39.89 0 37.0149 0 33.4808V30.2089C0 29.4662 0.601941 28.8642 1.34464 28.8642H24.2029C24.9456 28.8642 25.5475 29.4662 25.5475 30.2089V33.4808C25.5475 35.5317 27.2166 37.2008 29.2676 37.2008C31.3186 37.2008 32.9877 35.5317 32.9877 33.4808V5.10954ZM35.677 5.10945V9.7708H40.5175V5.10945C40.5175 3.77477 39.4315 2.6892 38.0972 2.6892C36.763 2.6892 35.677 3.77468 35.677 5.10945Z" fill="#9EABB2"/>
<rect x="6.14038" y="37.2008" width="22.8131" height="2.6892" fill="#9EABB2"/>
<path d="M19.9899 7.48499H13.0428C12.3001 7.48499 11.6981 8.08693 11.6981 8.82963C11.6981 9.57233 12.3001 10.1743 13.0428 10.1743H19.9899C20.7326 10.1743 21.3346 9.57233 21.3346 8.82963C21.3346 8.08693 20.7326 7.48499 19.9899 7.48499Z" fill="#9EABB2"/>
<path d="M28.0575 12.8634H13.0428C12.3001 12.8634 11.6981 13.4653 11.6981 14.208C11.6981 14.9507 12.3001 15.5527 13.0428 15.5527H28.0575C28.8002 15.5527 29.4022 14.9507 29.4022 14.208C29.4022 13.4653 28.8002 12.8634 28.0575 12.8634Z" fill="#9EABB2"/>
<path d="M28.0575 18.2418H13.0428C12.3001 18.2418 11.6981 18.8438 11.6981 19.5865C11.6981 20.3292 12.3001 20.9311 13.0428 20.9311H28.0575C28.8002 20.9311 29.4022 20.3296 29.4022 19.5865C29.4022 18.8438 28.8002 18.2418 28.0575 18.2418Z" fill="#9EABB2"/>
<path d="M28.0575 23.6202H13.0428C12.3001 23.6202 11.6981 24.2222 11.6981 24.9649C11.6981 25.7076 12.3001 26.3095 13.0428 26.3095H28.0575C28.8002 26.3095 29.4022 25.7076 29.4022 24.9649C29.4022 24.2222 28.8002 23.6202 28.0575 23.6202Z" fill="#9EABB2"/>
</svg>
