<svg width="50" height="32" viewBox="0 0 50 32" fill="none" xmlns="http://www.w3.org/2000/svg">
<path fill-rule="evenodd" clip-rule="evenodd" d="M49.0587 14.0366C46.4744 9.80994 42.9996 6.41387 38.6348 3.84844C34.2697 1.28291 29.6603 0 24.8061 0C19.9519 0 15.3424 1.28242 10.9773 3.84844C6.61207 6.41387 3.13745 9.80994 0.553503 14.0366C0.184533 14.6825 0 15.3193 0 15.947C0 16.5746 0.184533 17.2114 0.553503 17.8572C3.13745 22.084 6.61207 25.4803 10.9773 28.0452C15.3424 30.611 19.9519 31.8929 24.8061 31.8929C29.6604 31.8929 34.2698 30.6153 38.6348 28.0592C42.9996 25.5029 46.475 22.1021 49.0587 17.8572C49.4278 17.2114 49.6122 16.5749 49.6122 15.947C49.6122 15.3193 49.4278 14.6825 49.0587 14.0366ZM18.8672 6.46449C20.519 4.8127 22.4984 3.98652 24.8058 3.98652C25.1748 3.98652 25.4888 4.11607 25.7473 4.3743C26.0054 4.63263 26.1352 4.94652 26.1352 5.31559C26.1352 5.68495 26.0054 5.99864 25.7479 6.25658C25.4897 6.5152 25.1756 6.64436 24.8065 6.64436C23.2193 6.64436 21.8623 7.20756 20.7366 8.33319C19.6105 9.45949 19.0478 10.8159 19.0478 12.4031C19.0478 12.7727 18.9182 13.0862 18.66 13.3447C18.4014 13.6034 18.0878 13.7325 17.7187 13.7325C17.3493 13.7325 17.0356 13.6031 16.7771 13.3447C16.5185 13.0862 16.3893 12.7723 16.3893 12.4031C16.3893 10.0962 17.2155 8.11636 18.8672 6.46449ZM24.8061 28.3503C29.1251 28.3503 33.1348 27.2286 36.8356 24.9867C40.5363 22.744 43.6138 19.7309 46.0681 15.947C43.2627 11.5913 39.7465 8.33309 35.5201 6.17406C36.646 8.09299 37.2092 10.1699 37.2092 12.403C37.2092 15.8179 35.9959 18.7386 33.5685 21.1654C31.141 23.5921 28.2208 24.806 24.8061 24.806C21.3917 24.806 18.4706 23.5928 16.0437 21.1654C13.6169 18.7379 12.4031 15.8179 12.4031 12.403C12.4031 10.1699 12.9662 8.09328 14.092 6.17406C9.86541 8.33309 6.34938 11.591 3.54395 15.947C5.99864 19.7309 9.07636 22.744 12.7769 24.9867C16.4775 27.2293 20.4872 28.3503 24.8061 28.3503Z" fill="#9EABB2"/>
</svg>
