<svg width="105" height="25" viewBox="0 0 105 25" fill="none" xmlns="http://www.w3.org/2000/svg">
<path fill-rule="evenodd" clip-rule="evenodd" d="M12.5229 24.7111C19.4392 24.7111 25.0459 19.1793 25.0459 12.3555C25.0459 5.53176 19.4392 0 12.5229 0C5.60671 0 0 5.53176 0 12.3555C0 19.1793 5.60671 24.7111 12.5229 24.7111ZM55.8716 10.8653C55.3886 11.4127 54.7927 11.8461 54.0837 12.1655C53.3747 12.4848 52.5578 12.6445 51.633 12.6445C50.7905 12.6445 50.0121 12.5076 49.298 12.2339C48.5838 11.9602 47.9648 11.5724 47.4407 11.0706C46.9167 10.5687 46.5057 9.96807 46.2077 9.26855C45.9097 8.56904 45.7607 7.79856 45.7607 6.95712C45.7607 6.09539 45.9123 5.31478 46.2154 4.61527C46.5185 3.91575 46.9372 3.32016 47.4716 2.82847C48.0059 2.33678 48.6327 1.95915 49.3519 1.69556C50.0712 1.43197 50.847 1.30018 51.6793 1.30018C52.4499 1.30018 53.2077 1.43451 53.9527 1.70316C54.6976 1.97182 55.3013 2.36466 55.7637 2.88169L53.9758 4.64568C53.7292 4.31113 53.4055 4.06275 53.0048 3.90055C52.604 3.73834 52.193 3.65724 51.7717 3.65724C51.3094 3.65724 50.8855 3.74088 50.5002 3.90815C50.1149 4.07543 49.7835 4.30606 49.5061 4.60006C49.2286 4.89406 49.0128 5.24128 48.8587 5.64173C48.7046 6.04218 48.6275 6.48063 48.6275 6.95712C48.6275 7.44374 48.7046 7.8898 48.8587 8.29532C49.0128 8.70083 49.2261 9.04805 49.4983 9.33698C49.7706 9.62591 50.0969 9.85148 50.4771 10.0137C50.8572 10.1759 51.2734 10.257 51.7255 10.257C52.2495 10.257 52.7068 10.1556 53.0972 9.95286C53.4877 9.7501 53.8011 9.48652 54.0374 9.1621L55.8716 10.8653ZM28.9453 12.3555H31.5809L35.7886 1.58911H32.8756L30.3633 9.22293H30.3017L27.7739 1.58911H24.8147L28.9453 12.3555ZM36.7982 1.58911V12.3555H44.4121V10.1353H39.3413V7.89994H43.8727V5.81661H39.3413V3.7941H44.1347V1.58911H36.7982ZM61.6899 12.3555V3.80931H64.7725V1.58911H55.9717V3.80931H59.0543V12.3555H61.6899ZM77.0026 6.9267C77.0026 7.77829 76.8536 8.55636 76.5556 9.26095C76.2576 9.96553 75.844 10.5687 75.3149 11.0706C74.7857 11.5724 74.1563 11.9602 73.4268 12.2339C72.6972 12.5076 71.9061 12.6445 71.0532 12.6445C70.2004 12.6445 69.4117 12.5076 68.6873 12.2339C67.9629 11.9602 67.3362 11.5724 66.807 11.0706C66.2778 10.5687 65.8642 9.96553 65.5662 9.26095C65.2683 8.55636 65.1193 7.77829 65.1193 6.9267C65.1193 6.06498 65.2683 5.28691 65.5662 4.59246C65.8642 3.89801 66.2778 3.30748 66.807 2.82086C67.3362 2.33424 67.9629 1.95915 68.6873 1.69556C69.4117 1.43197 70.2004 1.30018 71.0532 1.30018C71.9061 1.30018 72.6972 1.43197 73.4268 1.69556C74.1563 1.95915 74.7857 2.33424 75.3149 2.82086C75.844 3.30748 76.2576 3.89801 76.5556 4.59246C76.8536 5.28691 77.0026 6.06498 77.0026 6.9267ZM73.9508 5.61892C74.1049 6.02443 74.182 6.46036 74.182 6.9267C74.182 7.41332 74.1049 7.86192 73.9508 8.27251C73.7967 8.68309 73.5809 9.03538 73.3035 9.32938C73.0261 9.62338 72.6973 9.85401 72.3171 10.0213C71.9369 10.1886 71.5156 10.2722 71.0532 10.2722C70.5908 10.2722 70.1695 10.1886 69.7894 10.0213C69.4092 9.85401 69.0829 9.62338 68.8106 9.32938C68.5383 9.03538 68.3251 8.68309 68.171 8.27251C68.0169 7.86192 67.9398 7.41332 67.9398 6.9267C67.9398 6.46036 68.0143 6.02443 68.1633 5.61892C68.3123 5.2134 68.5255 4.86618 68.8029 4.57725C69.0804 4.28832 69.4092 4.06022 69.7894 3.89294C70.1695 3.72567 70.5908 3.64203 71.0532 3.64203C71.5156 3.64203 71.9394 3.72567 72.3248 3.89294C72.7101 4.06022 73.0389 4.28832 73.3112 4.57725C73.5835 4.86618 73.7967 5.2134 73.9508 5.61892ZM84.7013 12.3555L82.3431 8.08242H81.4492V12.3555H78.8598V1.58911H83.0213C83.5453 1.58911 84.0565 1.64234 84.5549 1.74878C85.0532 1.85523 85.5002 2.03518 85.8958 2.28863C86.2914 2.54207 86.6073 2.87662 86.8437 3.29227C87.08 3.70793 87.1982 4.22496 87.1982 4.84337C87.1982 5.5733 86.9978 6.18664 86.5971 6.68339C86.1963 7.18015 85.6415 7.53497 84.9325 7.74787L87.7839 12.3555H84.7013ZM84.4316 4.27311C84.5395 4.43025 84.5934 4.63554 84.5934 4.88899C84.5934 5.16271 84.5343 5.38575 84.4161 5.55809C84.298 5.73043 84.1464 5.86223 83.9615 5.95347C83.7765 6.04471 83.571 6.10807 83.345 6.14355C83.1189 6.17903 82.898 6.19678 82.6822 6.19678H81.4338V3.68765H82.8363C83.0316 3.68765 83.2345 3.70286 83.4451 3.73327C83.6558 3.76369 83.8459 3.82198 84.0154 3.90815C84.185 3.99432 84.3237 4.11598 84.4316 4.27311ZM35.8657 24.0572C35.3314 24.3309 34.7072 24.5539 33.993 24.7263C33.2789 24.8986 32.5006 24.9848 31.658 24.9848C30.7846 24.9848 29.9806 24.8479 29.2459 24.5742C28.5112 24.3005 27.8793 23.9152 27.3501 23.4185C26.8209 22.9217 26.4073 22.3261 26.1094 21.6317C25.8114 20.9372 25.6624 20.1642 25.6624 19.3127C25.6624 18.4509 25.8139 17.6703 26.1171 16.9708C26.4202 16.2713 26.8389 15.6757 27.3732 15.184C27.9075 14.6923 28.5343 14.3147 29.2536 14.0511C29.9728 13.7875 30.7486 13.6557 31.5809 13.6557C32.444 13.6557 33.2455 13.785 33.9853 14.0435C34.7251 14.302 35.3262 14.6492 35.7886 15.0852L34.124 16.9556C33.8672 16.6616 33.5281 16.4208 33.1068 16.2333C32.6855 16.0457 32.2077 15.9519 31.6734 15.9519C31.211 15.9519 30.7846 16.0356 30.3941 16.2029C30.0037 16.3701 29.6646 16.6033 29.3769 16.9024C29.0892 17.2014 28.8657 17.5563 28.7064 17.9669C28.5472 18.3774 28.4675 18.826 28.4675 19.3127C28.4675 19.8094 28.5394 20.2656 28.6833 20.6813C28.8272 21.0969 29.0404 21.4543 29.3229 21.7533C29.6055 22.0524 29.9549 22.2856 30.371 22.4529C30.7872 22.6201 31.2624 22.7038 31.7967 22.7038C32.105 22.7038 32.3978 22.681 32.6752 22.6353C32.9527 22.5897 33.2095 22.5162 33.4459 22.4148V20.4532H31.3651V18.3546H35.8657V24.0572ZM41.6224 20.438L43.9805 24.7111H47.0631L44.2117 20.1034C44.9207 19.8905 45.4756 19.5357 45.8763 19.0389C46.2771 18.5422 46.4774 17.9288 46.4774 17.1989C46.4774 16.5805 46.3593 16.0635 46.1229 15.6478C45.8866 15.2322 45.5706 14.8976 45.175 14.6442C44.7794 14.3907 44.3325 14.2108 43.8341 14.1043C43.3358 13.9979 42.8246 13.9446 42.3006 13.9446H38.1391V24.7111H40.7284V20.438H41.6224ZM43.8727 17.2445C43.8727 16.9911 43.8187 16.7858 43.7108 16.6287C43.6029 16.4715 43.4642 16.3499 43.2947 16.2637C43.1251 16.1775 42.935 16.1192 42.7244 16.0888C42.5138 16.0584 42.3108 16.0432 42.1156 16.0432H40.713V18.5523H41.9615C42.1772 18.5523 42.3982 18.5346 42.6242 18.4991C42.8503 18.4636 43.0558 18.4002 43.2407 18.309C43.4257 18.2178 43.5772 18.086 43.6954 17.9136C43.8136 17.7413 43.8727 17.5182 43.8727 17.2445ZM55.0239 22.5973L55.8716 24.7111H58.8L54.2686 13.9446H51.7101L47.1325 24.7111H49.9993L50.8007 22.5973H55.0239ZM52.9431 16.8187L51.556 20.514H54.2994L52.9431 16.8187ZM67.7472 18.8488C67.9835 18.418 68.1017 17.8883 68.1017 17.2597C68.1017 16.6413 67.9912 16.1218 67.7703 15.701C67.5494 15.2803 67.2462 14.9407 66.8609 14.6822C66.4756 14.4237 66.0235 14.2361 65.5046 14.1195C64.9857 14.0029 64.4283 13.9446 63.8323 13.9446H59.825V24.7111H62.4606V20.6509H63.7706C64.3358 20.6509 64.8804 20.59 65.4044 20.4684C65.9284 20.3467 66.3908 20.1541 66.7916 19.8905C67.1923 19.6269 67.5108 19.2797 67.7472 18.8488ZM65.466 17.2749C65.466 17.0215 65.4147 16.8137 65.3119 16.6515C65.2092 16.4893 65.0705 16.3625 64.8958 16.2713C64.7211 16.18 64.5233 16.1192 64.3024 16.0888C64.0815 16.0584 63.8528 16.0432 63.6165 16.0432H62.4605V18.5827H63.5703C63.8169 18.5827 64.0532 18.5624 64.2793 18.5219C64.5053 18.4813 64.7083 18.4104 64.8881 18.309C65.0679 18.2076 65.2092 18.0733 65.3119 17.906C65.4147 17.7387 65.466 17.5284 65.466 17.2749ZM76.6943 20.2099V24.7111H79.3299V13.9446H76.6943V18.0201H72.4404V13.9446H69.8048V24.7111H72.4404V20.2099H76.6943ZM81.6958 24.7111V13.9446H84.3468V24.7111H81.6958ZM94.527 24.521C95.236 24.2016 95.8319 23.7683 96.3149 23.2208L94.4807 21.5176C94.2444 21.8421 93.931 22.1056 93.5406 22.3084C93.1501 22.5112 92.6928 22.6125 92.1688 22.6125C91.7167 22.6125 91.3006 22.5314 90.9204 22.3692C90.5402 22.207 90.2139 21.9814 89.9417 21.6925C89.6694 21.4036 89.4561 21.0564 89.302 20.6509C89.1479 20.2453 89.0708 19.7993 89.0708 19.3127C89.0708 18.8362 89.1479 18.3977 89.302 17.9973C89.4561 17.5968 89.6719 17.2496 89.9494 16.9556C90.2268 16.6616 90.5582 16.431 90.9435 16.2637C91.3288 16.0964 91.7527 16.0128 92.215 16.0128C92.6363 16.0128 93.0473 16.0939 93.4481 16.2561C93.8488 16.4183 94.1725 16.6667 94.4191 17.0012L96.207 15.2372C95.7446 14.7202 95.1409 14.3274 94.396 14.0587C93.651 13.79 92.8932 13.6557 92.1226 13.6557C91.2903 13.6557 90.5145 13.7875 89.7952 14.0511C89.076 14.3147 88.4492 14.6923 87.9149 15.184C87.3805 15.6757 86.9618 16.2713 86.6587 16.9708C86.3556 17.6703 86.204 18.4509 86.204 19.3127C86.204 20.1541 86.353 20.9246 86.651 21.6241C86.949 22.3236 87.36 22.9243 87.884 23.4261C88.4081 23.9279 89.0271 24.3157 89.7413 24.5894C90.4554 24.8631 91.2338 25 92.0763 25C93.0011 25 93.818 24.8403 94.527 24.521ZM103.32 16.7427C103.094 16.4588 102.799 16.2333 102.434 16.066C102.069 15.8987 101.717 15.8151 101.378 15.8151C101.203 15.8151 101.026 15.8303 100.846 15.8607C100.666 15.8911 100.505 15.9494 100.361 16.0356C100.217 16.1218 100.096 16.2333 99.9985 16.3701C99.9009 16.507 99.8521 16.6819 99.8521 16.8948C99.8521 17.0773 99.8906 17.2293 99.9677 17.351C100.045 17.4726 100.158 17.5791 100.307 17.6703C100.456 17.7616 100.633 17.8452 100.839 17.9212C101.044 17.9973 101.275 18.0758 101.532 18.1569C101.902 18.2786 102.287 18.4129 102.688 18.5599C103.089 18.7069 103.454 18.9021 103.782 19.1454C104.111 19.3887 104.383 19.6903 104.599 20.0502C104.815 20.4101 104.923 20.8587 104.923 21.396C104.923 22.0144 104.807 22.5492 104.576 23.0003C104.345 23.4514 104.034 23.824 103.644 24.118C103.253 24.412 102.806 24.63 102.303 24.7719C101.799 24.9138 101.28 24.9848 100.746 24.9848C99.9651 24.9848 99.2099 24.8505 98.4804 24.5818C97.7508 24.3132 97.1446 23.9305 96.6617 23.4337L98.3879 21.7001C98.655 22.0245 99.007 22.2957 99.4437 22.5137C99.8804 22.7317 100.314 22.8406 100.746 22.8406C100.941 22.8406 101.131 22.8204 101.316 22.7798C101.501 22.7393 101.663 22.6734 101.802 22.5821C101.941 22.4909 102.051 22.3692 102.133 22.2172C102.215 22.0651 102.257 21.8826 102.257 21.6697C102.257 21.4669 102.205 21.2946 102.102 21.1527C102 21.0107 101.853 20.8815 101.663 20.7649C101.473 20.6483 101.237 20.5419 100.954 20.4456C100.672 20.3492 100.35 20.2453 99.9908 20.1338C99.6415 20.0223 99.2998 19.8905 98.9659 19.7384C98.6319 19.5864 98.3339 19.3912 98.0719 19.153C97.8099 18.9147 97.5993 18.6258 97.44 18.2862C97.2807 17.9466 97.2011 17.5335 97.2011 17.0468C97.2011 16.4487 97.3244 15.9367 97.571 15.5109C97.8176 15.0852 98.1413 14.7354 98.542 14.4617C98.9427 14.188 99.3949 13.9877 99.8983 13.861C100.402 13.7343 100.91 13.6709 101.424 13.6709C102.041 13.6709 102.67 13.7824 103.312 14.0055C103.954 14.2285 104.517 14.558 105 14.9939L103.32 16.7427Z" fill="#9EABB2"/>
</svg>
